<svg xmlns="http://www.w3.org/2000/svg">
  <symbol viewBox="0 0 32 32" id="display">
    <path d="m27 4.996-22 .004c-.553 0-1 .443-1 .996v14c0 .553.447 1 1 1h22c.553 0 1-.447 1-1v-14c0-.553-.447-1-1-1zm0 15.004h-22v-14.004h22z"/>
    <path
      d="m29 1h-26c-1.657 0-3 1.342-3 3v20c0 1.654 1.338 2.994 2.99 2.998h10.01v1.217l-6.242.811c-.446.111-.758.511-.758.97 0 .553.447 1 1 1h18c.553 0 1-.447 1-1 0-.459-.312-.859-.758-.971l-6.242-.81v-1.217h10.01c1.652-.004 2.99-1.344 2.99-2.998v-20c0-1.658-1.344-3-3-3zm1 23c0 .551-.449 1-1 1h-9-8-9c-.552 0-1-.449-1-1v-20c0-.552.448-1 1-1h26c.551 0 1 .448 1 1z"/>
  </symbol>
</svg>
