<svg xmlns="http://www.w3.org/2000/svg" version="1.1" viewBox="0 0 100 100" fill="#00aaff">
    <path d="m21.801 45.102c-2.6016-1.1992-3.6016-2.6992-3.3984-5.1992 0.19922-2.6016 1.5-4.3984 3.6016-5.8008 0.89844-0.5 1.8008-0.89844 2.8984-1.1016-0.60156 0.89844-1 1.6992-1.1992 2.6016-0.19922 1.1992 0 2.3008 0.39844 3.3008 0.39844 1.1016 1 2.1992 1.1992 3.3984 0.39844 2.6992-0.60156 4.8008-2.8008 6.3984-1.1016 0.80078-2.3008 1.1992-3.6016 1.6016-1.3008 0.39844-2.6016 0.80078-3.6992 1.6016-0.5 0.39844-1 0.80078-1.1992 1.3984-0.69922 1.5 0.19922 2.8984 1.8008 3 1.3984 0 2.6016-0.5 3.8984-1 3.5-1.3008 6.8008-2.8008 10.398-3.8984 2.3008-0.69922 4.6016-1.1992 7.1992-1.3984-4.6016 3.8008-7 8.6992-9.1016 13.898 1.8984-1.6016 3.6992-3.3984 5.3008-5.3008 4.6992-5.6016 8.8984-11.602 13.199-17.5 0.5-0.69922 1-1.3008 1.5-1.8984-0.19922 1.3008-0.39844 2.6016-0.30078 4 0.39844 2.8984 2 5 4.5 6.3984 1.8984 1 3.8008 1.8008 5.5 3.1016 3.6992 2.6992 6.1016 6.1992 6.6992 10.801 0.39844 2.8008-0.10156 5.6016-1.1016 8.3008-0.69922 2-1.6016 3.8984-1.8984 6-0.60156 3.3008 0.10156 6.5 1.6016 9.3984 0.39844 0.80078 0.80078 1.5 1.1992 2.3008h-6.5c-0.30078 0-0.39844-0.19922-0.39844-0.39844-1.3008-3.5-2.3008-7.1016-2.6992-10.801-0.19922-1.8008-0.10156-3.6992-0.19922-5.5-0.19922-3.6016-1.3984-6.8008-3.5-9.6992-0.89844-1.1992-1.8008-2.3008-2.5-3.5-2-3.1016-2.3008-6.3008-1.1016-9.8008v-0.30078c-0.19922 0.10156-0.30078 0.30078-0.39844 0.39844-2.1992 3.8008-2.3008 7.6992-0.5 11.602 0.89844 1.8984 2.1016 3.5 3.1016 5.3984 0.89844 1.8008 1.5 3.6016 1.6016 5.6016 0 0.30078 0.10156 0.5-0.39844 0.39844-5.5-1.8984-10.301-0.39844-14.699 2.8984-0.69922 0.5-1.3008 1.1016-1.8008 1.6992-1.8008 2-2.1992 4.1992-1 6.6016 0.80078 1.5 1.6016 3.1016 2.3984 4.6016 0.10156 0.19922 0.19922 0.39844 0.30078 0.69922h-5.3008c-0.39844 0-0.39844-0.39844-0.5-0.60156-1.3008-3.1016-2.6992-6.1992-4-9.3008-0.30078-0.60156-0.5-1.3008-0.80078-1.8984-0.19922-0.30078-0.10156-0.5 0.30078-0.69922 3.1992-1.8008 5.8984-4.1992 7.6016-7.3984 1.3008-2.5 1.6016-5.1016 1.1992-7.8984-0.19922 0.30078-0.19922 0.5-0.30078 0.80078-0.10156 0.30078-0.10156 0.5-0.19922 0.80078-1.3984 4.8984-4.3008 8.5-8.8008 10.898-1.1992 0.60156-2.3008 1.1992-3.5 1.8984-4.8008 2.8984-6.6992 7.3008-5.6016 12.801 0.19922 0.80078 0.19922 0.80078-0.69922 0.80078h-5.1992c-0.5 0-0.60156-0.10156-0.39844-0.60156 0.80078-3.5 1.8984-6.8984 2.8008-10.301 0.60156-2.1992 1.1992-4.3008 1.6992-6.5 0.10156-0.30078 0.10156-0.5 0.39844-0.69922 2.6016-1.6992 3.8984-4.1016 4.3008-7.1016 0.19922-1.3008 0.19922-2.5 0-3.8008-0.10156-0.5-0.10156-0.80078-0.80078-0.60156-1.3984 0.5-2.8984 0.69922-4.3984 0.30078-3.8984-1-5.5-5.5-3.1016-9 1.1992-1.6992 2.8984-2.8008 4.8984-3.3984 1.3008-0.5 2.6992-0.89844 4.1016-1.3984 0.89844-0.30469 1.5977-0.70312 2-1.4023z"/>
    <path d="m77.199 12.602c-2.1992 0.5-4.3008 1.1016-6.3008 2.1992-1 0.5-1.8984 1.1016-2.6992 1.8984-0.60156 0.60156-1.1016 1.3984-0.69922 2.3008 0.30078 0.89844 1.1016 1.1992 1.8984 1.1992 1.8984 0 3.8008 0.10156 5.6992 0.10156 2.5 0 4.8008 0.80078 6.8984 2.3008 0.5 0.39844 1.1016 0.60156 1.8008 0.60156 1.1016-0.10156 2.1016 0 3.1992-0.10156 1.8008-0.19922 3.1016-1.5 3.3984-3.3008 0.19922-1.6992-0.10156-3.3984-0.60156-5 0-0.10156-0.10156-0.30078-0.19922-0.5 0.69922 0.60156 1.1992 1.1016 1.6992 1.6992 1.3984 1.8984 2.3008 3.8984 2 6.3008-0.39844 2.8984-2.6992 5.1016-5.6016 5.3008-0.30078 0-0.60156 0.10156-0.89844 0.10156 0.80078 1.3984 1.8008 2.6016 2.6992 3.8984 0.5 0.60156 0.89844 1.3008 1.3984 1.8984 0.19922 0.30078 0.19922 0.5 0 0.80078-0.80078 1.1016-1.6016 2.3008-2.3984 3.5-0.19922 0.39844-0.60156 0.60156-1 0.60156-0.80078 0-1.5 0.30078-2 0.80078-0.30078 0.30078-0.39844 0.19922-0.69922 0-0.5-0.5-1-0.89844-1.8008-0.89844-0.60156 0-1.1992 0.19922-1.5 0.80078-0.10156 0.30078-0.30078 0.39844-0.60156 0.19922-1.5-0.69922-3.1992-1.1016-4.6992-1.8984-2.8008-1.3984-4.8984-3.5-5.6016-6.6992-0.30078-1.3008-0.19922-2.6016 0.30078-3.8008 0.10156-0.19922 0.19922-0.39844 0.10156-0.69922-1.6016 2.1016-2.3984 4.3984-1.8008 7 0.89844 3.8984 3.5 6.3984 7 8 1.1016 0.5 2.1992 0.80078 3.3984 1 0.5 0.10156 0.69922 0.19922 0.89844 0.69922 2 5.5 2 11.102 0.10156 16.602-0.10156 0.30078-0.19922 0.5 0 0.80078 1.3984 2.6016 1.8984 5.5 2 8.3984 0.10156 2-0.10156 4.1016-0.30078 6.1016-0.39844 5.1992 1.3008 9.8984 4 14.199 0.10156 0.19922 0.30078 0.39844 0.30078 0.69922h-5.6992c-0.39844 0-0.5-0.30078-0.5-0.60156-1-2.6992-1.8984-5.3008-3.1992-7.8984-1.1016-2.3008-2.5-4.5-4.3984-6.1992-1.3008-1.1016-2.8008-1.8984-4.6016-2 0.39844-0.5 0.89844-0.80078 1.3008-1.1992 3.6992-3.3008 6.5-7.1016 8-11.801 1.6016-5 1.1992-9.8984-1.5-14.602-0.19922-0.30078-0.30078-0.5-0.5-0.69922 0 0-0.10156-0.10156-0.19922-0.19922 1.6992 5.3984 2 10.602-0.5 15.801 0-0.80078 0.10156-1.5 0-2.3008-0.30078-4.6992-2.1016-8.6992-5.1992-12.199-1.6992-1.8984-3.6992-3.5-5.3984-5.3984-1.6992-1.8984-3.1992-3.8984-3.8008-6.5-0.10156-0.30078-0.10156-0.5-0.19922-0.80078-0.19922 1.5 0.10156 3 0.60156 4.5 0.69922 2 1.8984 3.8008 3.1992 5.3984 1.8008 2.1016 3.8008 4.1016 5.1992 6.5 3.8984 6.5 3.8984 12.898-0.10156 19.301 0 0.10156-0.10156 0.10156-0.19922 0.19922 0.10156-0.80078 0.19922-1.5 0.30078-2.1992 1.0039-8.5078-3.1953-16.008-10.695-19.809-1.3984-0.69922-2.8984-1.3984-4.1992-2.3984-2.8008-2.1992-3.6016-5.1016-2.8984-8.5 0.69922-3.6992 2.8008-6.6992 5.5-9.3008 0.60156-0.60156 1.1992-1.1016 1.8008-1.6016 0.30078-0.30078 0.5-0.30078 0.80078 0.10156 1.1992 1.3984 2.6016 2.5 4.3984 2.8008 2.1992 0.39844 4.5-0.39844 5.8984-2.1992-1.1016 0-2.1992 0.10156-3.1992-0.19922-2.1992-0.39844-3.8984-1.5-5.1992-3.3984-1.3984-2.1992-1.1016-4.8008 0.80078-6.6016 1.6016-1.5 3.6992-2.3008 5.8008-2.8984 2.6992-0.69922 5.5-0.89844 8.3984-0.60156 0.29688 0.29688 0.59766 0.29688 0.79688 0.39844zm3.6992 17.398c0.19922-4-1.6016-5-5-3.8984 2.1016 0.69922 3.9023 1.7969 5 3.8984z"/>
</svg>
